<svg xmlns="http://www.w3.org/2000/svg" version="1.1" xmlns:xlink="http://www.w3.org/1999/xlink" xmlns:svgjs="http://svgjs.dev/svgjs" width="1000" height="1843" viewBox="0 0 1000 1843"><g transform="matrix(1,0,0,1,0.23554165483670886,0.7461538461537884)"><svg viewBox="0 0 134 247" data-background-color="#ed2647" preserveAspectRatio="xMidYMid meet" height="1843" width="1000" xmlns="http://www.w3.org/2000/svg" xmlns:xlink="http://www.w3.org/1999/xlink"><g id="tight-bounds" transform="matrix(1,0,0,1,-0.031562369368458576,-0.09999999999999432)"><svg viewBox="0 0 134.06311836734693 247.2" height="247.2" width="134.06311836734693"><g><svg></svg></g><g><svg viewBox="0 0 134.06311836734693 247.2" height="247.2" width="134.06311836734693"><g transform="matrix(1,0,0,1,0,47.215199999999996)"><svg viewBox="0 0 134.06311836734693 152.7696" height="152.7696" width="134.06311836734693"><g><svg viewBox="0 0 134.06311836734693 152.7696" height="152.7696" width="134.06311836734693"><g><svg viewBox="0 0 134.06311836734693 152.7696" height="152.7696" width="134.06311836734693"><g><svg viewBox="0 0 134.06311836734693 152.7696" height="152.7696" width="134.06311836734693"><g id="textblocktransform"><svg viewBox="0 0 134.06311836734693 152.7696" height="152.7696" width="134.06311836734693" id="textblock"><g><svg viewBox="0 0 134.06311836734693 152.7696" height="152.7696" width="134.06311836734693"><g transform="matrix(1,0,0,1,0,0)"><svg width="134.06311836734693" viewBox="3.950000047683716 -34.29999923706055 30.099998474121094 34.29999923706055" height="152.7696" data-palette-color="#8d021f"><path d="M3.95 0L3.95-34.3 21.8-34.3Q26.95-34.3 29.7-31.65 32.45-29 32.45-24.55L32.45-24.55Q32.45-21.05 30.78-18.5 29.1-15.95 26.15-14.85L26.15-14.85 34.05 0 28.75 0 21.3-14.15 8.7-14.15 8.7 0 3.95 0ZM8.7-18.3L21.55-18.3Q24.35-18.3 26-19.95 27.65-21.6 27.65-24.5L27.65-24.5Q27.65-27.2 26.1-28.68 24.55-30.15 21.55-30.15L21.55-30.15 8.7-30.15 8.7-18.3Z" opacity="1" transform="matrix(1,0,0,1,0,0)" fill="#8d021f" class="undefined-text-0" data-fill-palette-color="primary" id="text-0"></path></svg></g></svg></g></svg></g></svg></g><g></g></svg></g></svg></g></svg></g><path d="M0 41.215L0 1 134.063 1 134.063 41.215 120.286 41.215 120.286 14.777 13.777 14.777 13.777 41.215 0 41.215M0 205.985L0 246.2 134.063 246.2 134.063 205.985 120.286 205.985 120.286 232.423 13.777 232.423 13.777 205.985 0 205.985" fill="#8d021f" stroke="transparent" data-fill-palette-color="primary"></path></svg></g><defs></defs></svg><rect width="134.06311836734693" height="247.2" fill="none" stroke="none" visibility="hidden"></rect></g></svg></g></svg>